<?xml version="1.0" encoding="utf-8"?>
<!-- Generator: Adobe Illustrator 21.0.2, SVG Export Plug-In . SVG Version: 6.00 Build 0)  -->
<svg version="1.1" id="Слой_1" xmlns="http://www.w3.org/2000/svg" xmlns:xlink="http://www.w3.org/1999/xlink" x="0px" y="0px"
	 viewBox="0 0 30.6 30.7" style="enable-background:new 0 0 30.6 30.7;" xml:space="preserve" fill="#414141">
<g id="XMLID_423_">
	<g id="XMLID_424_">
		<g>
			<path id="XMLID_425_" d="M17.3,15.3L30.1,2.5c0.6-0.6,0.6-1.5,0-2.1s-1.5-0.6-2.1,0L15.4,13.3L2.5,0.6C2,0,1,0,0.5,0.6
				s-0.6,1.5,0,2.1l12.8,12.8L0.5,28.2c-0.6,0.6-0.6,1.5,0,2.1c0.3,0.3,0.7,0.4,1,0.4c0.4,0,0.7-0.1,1-0.4l12.9-12.8l12.8,12.8
				c0.3,0.3,0.7,0.4,1,0.4c0.4,0,0.8-0.1,1-0.4c0.6-0.6,0.6-1.5,0-2.1L17.3,15.3z"/>
		</g>
	</g>
</g>
</svg>
