 <svg xmlns="http://www.w3.org/2000/svg" xmlns:xlink="http://www.w3.org/1999/xlink" width="140" height="50" viewBox="0 0 70 24"><defs><path id="z0p5a" d="M32.79 16.29h12.73v10.57H32.79z"/><path id="z0p5d" d="M33.19 26.86c-.68-2.1-.51-4.4.67-6.4 2.03-3.42 6.38-4.89 10.47-3.83l1.19 1.77-1.9 1.5c-4.1-.74-7.95.43-9.63 3.27a6.08 6.08 0 0 0-.8 3.69"/><path id="z0p5b" d="M17 39.6h70.09V16.73H17z"/><path id="z0p5f" d="M17 38.86h2.95V23.37H17z"/><path id="z0p5g" d="M32.49 38.86H29.4v-6.92a1.95 1.95 0 0 0-.62-1.35 2.14 2.14 0 0 0-1.4-.59c-.59.02-1.08.2-1.45.57a2 2 0 0 0-.65 1.32v6.97h-3.13V27.34h3.13v.7a4.22 4.22 0 0 1 2.85-.98c1.22 0 2.25.46 3.09 1.39a5 5 0 0 1 1.26 3.49z"/><path id="z0p5h" d="M46.51 34.7c0 1.63-.59 2.85-1.78 3.67a7.63 7.63 0 0 1-4.44 1.23 9.3 9.3 0 0 1-6.32-2.57l2.23-2.28a7.56 7.56 0 0 0 4.25 1.71c.92 0 1.65-.15 2.2-.46.56-.3.83-.72.83-1.25.02-.53-.24-.97-.76-1.3-.52-.35-1.4-.6-2.64-.76-1.84-.23-3.18-.76-4.03-1.6a3.88 3.88 0 0 1-1.25-2.92c0-1.37.46-2.51 1.39-3.42.92-.9 2.26-1.36 4-1.38 2.13.05 3.96.73 5.47 2.04l-2.18 2.22a5.44 5.44 0 0 0-3.17-1.12c-.92 0-1.57.14-1.95.4-.38.28-.57.63-.57 1.05 0 .44.21.77.6.98.4.22 1.05.38 1.97.47 1.94.19 3.46.74 4.53 1.65a4.53 4.53 0 0 1 1.62 3.64"/><path id="z0p5i" d="M58.32 38.7h-2.97v-.37c-.92.36-1.93.53-3.04.53-1.26 0-2.3-.35-3.1-1.07a3.49 3.49 0 0 1-1.22-2.74c0-1.17.44-2.15 1.34-2.94a4.95 4.95 0 0 1 3.38-1.17c.92 0 1.81.1 2.69.3.03-.42-.13-.75-.47-1a2.9 2.9 0 0 0-1.61-.4c-1.1 0-2.16.29-3.18.84l-1.22-2.41a9.6 9.6 0 0 1 4.4-1.21c1.5 0 2.7.35 3.62 1.04.92.7 1.38 1.76 1.38 3.19zm-2.97-3.11v-1.7c-.93-.18-1.81-.27-2.64-.27-.5 0-.91.12-1.25.37-.34.25-.5.55-.5.9 0 .34.2.64.6.9.39.27.87.4 1.43.4.86 0 1.64-.2 2.36-.6z"/><path id="z0p5j" d="M63.48 39.6h-2.95V24.97l2.95-1.6z"/><path id="z0p5k" d="M76.02 33.98h-7.35c.14.65.43 1.16.88 1.53.44.37.97.55 1.58.53.69 0 1.3-.27 1.84-.8L75 36.84a4.72 4.72 0 0 1-3.9 2.01c-1.6 0-2.9-.55-3.9-1.65a6.07 6.07 0 0 1-1.52-4.25c0-1.1.23-2.1.69-3.03a5.15 5.15 0 0 1 4.59-2.87c.93 0 1.8.28 2.6.83.8.56 1.41 1.3 1.83 2.21.41.92.62 2.21.62 3.88zM73 31.4c-.1-.49-.36-.87-.74-1.15a2.3 2.3 0 0 0-1.29-.43c-.47.01-.9.16-1.3.43-.39.28-.64.66-.75 1.15z"/><path id="z0p5l" d="M87.09 35.4c0 .92-.41 1.73-1.23 2.42-.81.7-2.12 1.04-3.9 1.04-1.58 0-3.3-.43-5.2-1.29l1.35-2.71a8.37 8.37 0 0 0 3.96 1.27c.96-.03 1.54-.12 1.72-.29.18-.16.27-.32.27-.5 0-.16-.1-.33-.3-.49-.21-.16-.85-.35-1.91-.57a9.52 9.52 0 0 1-3.22-1.18 2.56 2.56 0 0 1-1.3-2.17 3.35 3.35 0 0 1 1.23-2.8 5.05 5.05 0 0 1 3.37-1.07c1.6 0 3.23.43 4.9 1.3l-1.28 2.57a9.91 9.91 0 0 0-3.5-.93c-.57 0-.98.06-1.25.18-.27.13-.4.32-.4.56.03.19.16.33.4.44.24.1.78.27 1.62.49 1.5.35 2.66.79 3.46 1.32.8.52 1.2 1.32 1.2 2.4"/><clipPath id="z0p5c"><use xlink:href="#z0p5a"/></clipPath><clipPath id="z0p5e"><use xlink:href="#z0p5b"/></clipPath></defs><g><g transform="translate(-17 -16)"><g><g/><g clip-path="url(#z0p5c)"><use fill="#000" xlink:href="#z0p5d"/></g></g><g/><g clip-path="url(#z0p5e)"><use fill="#000" xlink:href="#z0p5f"/></g><g clip-path="url(#z0p5e)"><use fill="#000" xlink:href="#z0p5g"/></g><g clip-path="url(#z0p5e)"><use fill="#000" xlink:href="#z0p5h"/></g><g clip-path="url(#z0p5e)"><use fill="#000" xlink:href="#z0p5i"/></g><g clip-path="url(#z0p5e)"><use fill="#000" xlink:href="#z0p5j"/></g><g clip-path="url(#z0p5e)"><use fill="#000" xlink:href="#z0p5k"/></g><g clip-path="url(#z0p5e)"><use fill="#000" xlink:href="#z0p5l"/></g></g></g></svg>
